<svg width="156" height="137" viewBox="0 0 156 137" fill="none" xmlns="http://www.w3.org/2000/svg">
<path d="M40.32 94.536C34.88 94.536 29.856 93.704 25.248 92.04C20.704 90.312 16.736 87.88 13.344 84.744C10.016 81.608 7.424 77.896 5.568 73.608C3.712 69.32 2.784 64.584 2.784 59.4C2.784 54.216 3.712 49.48 5.568 45.192C7.424 40.904 10.048 37.192 13.44 34.056C16.832 30.92 20.832 28.52 25.44 26.856C30.112 25.128 35.232 24.264 40.8 24.264C47.456 24.264 53.376 25.384 58.56 27.624C63.808 29.864 68.128 33.064 71.52 37.224L57.024 49.992C54.912 47.56 52.608 45.736 50.112 44.52C47.68 43.24 44.96 42.6 41.952 42.6C39.456 42.6 37.184 42.984 35.136 43.752C33.152 44.52 31.456 45.64 30.048 47.112C28.64 48.584 27.552 50.344 26.784 52.392C26.016 54.44 25.632 56.776 25.632 59.4C25.632 61.896 26.016 64.2 26.784 66.312C27.552 68.36 28.64 70.12 30.048 71.592C31.456 73.064 33.12 74.216 35.04 75.048C37.024 75.816 39.232 76.2 41.664 76.2C44.224 76.2 46.72 75.784 49.152 74.952C51.584 74.056 54.176 72.552 56.928 70.44L69.6 85.992C65.504 88.744 60.832 90.856 55.584 92.328C50.336 93.8 45.248 94.536 40.32 94.536ZM49.92 83.112V57.576H69.6V85.992L49.92 83.112ZM114.485 94.536C109.045 94.536 103.989 93.672 99.3173 91.944C94.7093 90.216 90.7093 87.784 87.3173 84.648C83.9253 81.448 81.2693 77.704 79.3493 73.416C77.4933 69.128 76.5653 64.456 76.5653 59.4C76.5653 54.28 77.4933 49.608 79.3493 45.384C81.2693 41.096 83.9253 37.384 87.3173 34.248C90.7093 31.048 94.7093 28.584 99.3173 26.856C103.989 25.128 109.045 24.264 114.485 24.264C119.989 24.264 125.045 25.128 129.653 26.856C134.261 28.584 138.261 31.048 141.653 34.248C145.045 37.384 147.669 41.096 149.525 45.384C151.445 49.608 152.405 54.28 152.405 59.4C152.405 64.456 151.445 69.128 149.525 73.416C147.669 77.704 145.045 81.448 141.653 84.648C138.261 87.784 134.261 90.216 129.653 91.944C125.045 93.672 119.989 94.536 114.485 94.536ZM114.485 76.2C116.597 76.2 118.549 75.816 120.341 75.048C122.197 74.28 123.797 73.192 125.141 71.784C126.549 70.312 127.637 68.552 128.405 66.504C129.173 64.392 129.557 62.024 129.557 59.4C129.557 56.776 129.173 54.44 128.405 52.392C127.637 50.28 126.549 48.52 125.141 47.112C123.797 45.64 122.197 44.52 120.341 43.752C118.549 42.984 116.597 42.6 114.485 42.6C112.373 42.6 110.389 42.984 108.533 43.752C106.741 44.52 105.141 45.64 103.733 47.112C102.389 48.52 101.333 50.28 100.565 52.392C99.7973 54.44 99.4133 56.776 99.4133 59.4C99.4133 62.024 99.7973 64.392 100.565 66.504C101.333 68.552 102.389 70.312 103.733 71.784C105.141 73.192 106.741 74.28 108.533 75.048C110.389 75.816 112.373 76.2 114.485 76.2Z" fill="#CCCCCC"/>
<path d="M14.7386 128.409C12.8977 128.409 11.3125 127.974 9.98295 127.105C8.65341 126.236 7.63068 125.038 6.91477 123.513C6.19886 121.987 5.84091 120.244 5.84091 118.284C5.84091 116.29 6.20739 114.53 6.94034 113.004C7.68182 111.47 8.71307 110.273 10.0341 109.412C11.3636 108.543 12.9148 108.108 14.6875 108.108C16.0682 108.108 17.3125 108.364 18.4205 108.875C19.5284 109.386 20.4361 110.102 21.1435 111.023C21.8509 111.943 22.2898 113.017 22.4602 114.244H19.4432C19.2131 113.349 18.7017 112.557 17.9091 111.866C17.125 111.168 16.0682 110.818 14.7386 110.818C13.5625 110.818 12.5313 111.125 11.6449 111.739C10.767 112.344 10.081 113.2 9.58665 114.308C9.10085 115.408 8.85795 116.699 8.85795 118.182C8.85795 119.699 9.09659 121.02 9.57386 122.145C10.0597 123.27 10.7415 124.143 11.6193 124.766C12.5057 125.388 13.5455 125.699 14.7386 125.699C15.5227 125.699 16.2344 125.562 16.8736 125.29C17.5128 125.017 18.054 124.625 18.4972 124.114C18.9403 123.602 19.2557 122.989 19.4432 122.273H22.4602C22.2898 123.432 21.8679 124.476 21.1946 125.405C20.5298 126.325 19.6477 127.058 18.5483 127.604C17.4574 128.141 16.1875 128.409 14.7386 128.409ZM34.848 128.409C33.0753 128.409 31.5199 127.987 30.1818 127.143C28.8523 126.3 27.8125 125.119 27.0625 123.602C26.321 122.085 25.9503 120.312 25.9503 118.284C25.9503 116.239 26.321 114.453 27.0625 112.928C27.8125 111.402 28.8523 110.217 30.1818 109.374C31.5199 108.53 33.0753 108.108 34.848 108.108C36.6207 108.108 38.1719 108.53 39.5014 109.374C40.8395 110.217 41.8793 111.402 42.6207 112.928C43.3707 114.453 43.7457 116.239 43.7457 118.284C43.7457 120.312 43.3707 122.085 42.6207 123.602C41.8793 125.119 40.8395 126.3 39.5014 127.143C38.1719 127.987 36.6207 128.409 34.848 128.409ZM34.848 125.699C36.1946 125.699 37.3026 125.354 38.1719 124.663C39.0412 123.973 39.6847 123.065 40.1023 121.94C40.5199 120.815 40.7287 119.597 40.7287 118.284C40.7287 116.972 40.5199 115.749 40.1023 114.615C39.6847 113.482 39.0412 112.565 38.1719 111.866C37.3026 111.168 36.1946 110.818 34.848 110.818C33.5014 110.818 32.3935 111.168 31.5241 111.866C30.6548 112.565 30.0114 113.482 29.5938 114.615C29.1761 115.749 28.9673 116.972 28.9673 118.284C28.9673 119.597 29.1761 120.815 29.5938 121.94C30.0114 123.065 30.6548 123.973 31.5241 124.663C32.3935 125.354 33.5014 125.699 34.848 125.699ZM51.3683 116.188V128H48.3512V108.364H51.266V111.432H51.5217C51.9819 110.435 52.6808 109.634 53.6183 109.028C54.5558 108.415 55.766 108.108 57.2489 108.108C58.5785 108.108 59.7418 108.381 60.739 108.926C61.7362 109.463 62.5117 110.281 63.0657 111.381C63.6197 112.472 63.8967 113.852 63.8967 115.523V128H60.8796V115.727C60.8796 114.185 60.479 112.983 59.6779 112.122C58.8768 111.253 57.7773 110.818 56.3796 110.818C55.4165 110.818 54.5558 111.027 53.7972 111.445C53.0472 111.862 52.4549 112.472 52.0202 113.273C51.5856 114.074 51.3683 115.045 51.3683 116.188ZM77.9496 108.364V110.92H67.7734V108.364H77.9496ZM70.7393 103.659H73.7564V122.375C73.7564 123.227 73.88 123.866 74.1271 124.293C74.3828 124.71 74.7067 124.991 75.0987 125.136C75.4993 125.273 75.9212 125.341 76.3643 125.341C76.6967 125.341 76.9695 125.324 77.1825 125.29C77.3956 125.247 77.5661 125.213 77.6939 125.188L78.3075 127.898C78.103 127.974 77.8175 128.051 77.451 128.128C77.0845 128.213 76.62 128.256 76.0575 128.256C75.2053 128.256 74.37 128.072 73.5518 127.706C72.7422 127.339 72.0689 126.781 71.532 126.031C71.0036 125.281 70.7393 124.335 70.7393 123.193V103.659ZM82.4879 128V108.364H85.505V128H82.4879ZM84.022 105.091C83.4339 105.091 82.9268 104.891 82.5007 104.49C82.0831 104.089 81.8743 103.608 81.8743 103.045C81.8743 102.483 82.0831 102.001 82.5007 101.601C82.9268 101.2 83.4339 101 84.022 101C84.6101 101 85.1129 101.2 85.5305 101.601C85.9567 102.001 86.1697 102.483 86.1697 103.045C86.1697 103.608 85.9567 104.089 85.5305 104.49C85.1129 104.891 84.6101 105.091 84.022 105.091ZM94.0479 116.188V128H91.0309V108.364H93.9457V111.432H94.2013C94.6616 110.435 95.3604 109.634 96.2979 109.028C97.2354 108.415 98.4457 108.108 99.9286 108.108C101.258 108.108 102.422 108.381 103.419 108.926C104.416 109.463 105.191 110.281 105.745 111.381C106.299 112.472 106.576 113.852 106.576 115.523V128H103.559V115.727C103.559 114.185 103.159 112.983 102.358 112.122C101.556 111.253 100.457 110.818 99.0593 110.818C98.0962 110.818 97.2354 111.027 96.4769 111.445C95.7269 111.862 95.1346 112.472 94.6999 113.273C94.2653 114.074 94.0479 115.045 94.0479 116.188ZM124.464 119.972V108.364H127.482V128H124.464V124.676H124.26C123.8 125.673 123.084 126.521 122.112 127.22C121.141 127.911 119.913 128.256 118.43 128.256C117.203 128.256 116.112 127.987 115.158 127.45C114.203 126.905 113.453 126.087 112.908 124.996C112.362 123.896 112.089 122.511 112.089 120.841V108.364H115.107V120.636C115.107 122.068 115.507 123.21 116.308 124.062C117.118 124.915 118.149 125.341 119.402 125.341C120.152 125.341 120.915 125.149 121.69 124.766C122.474 124.382 123.131 123.794 123.659 123.001C124.196 122.209 124.464 121.199 124.464 119.972ZM141.24 128.409C139.348 128.409 137.716 127.991 136.344 127.156C134.98 126.312 133.928 125.136 133.186 123.628C132.453 122.111 132.087 120.347 132.087 118.335C132.087 116.324 132.453 114.551 133.186 113.017C133.928 111.474 134.959 110.273 136.28 109.412C137.61 108.543 139.161 108.108 140.934 108.108C141.956 108.108 142.966 108.278 143.963 108.619C144.961 108.96 145.868 109.514 146.686 110.281C147.505 111.04 148.157 112.045 148.642 113.298C149.128 114.551 149.371 116.094 149.371 117.926V119.205H134.235V116.597H146.303C146.303 115.489 146.081 114.5 145.638 113.631C145.203 112.761 144.581 112.075 143.772 111.572C142.971 111.07 142.025 110.818 140.934 110.818C139.732 110.818 138.692 111.116 137.814 111.713C136.945 112.301 136.276 113.068 135.807 114.014C135.338 114.96 135.104 115.974 135.104 117.057V118.795C135.104 120.278 135.36 121.536 135.871 122.567C136.391 123.589 137.111 124.369 138.032 124.906C138.952 125.435 140.022 125.699 141.24 125.699C142.033 125.699 142.749 125.588 143.388 125.366C144.036 125.136 144.594 124.795 145.063 124.344C145.532 123.884 145.894 123.312 146.15 122.631L149.064 123.449C148.757 124.438 148.242 125.307 147.517 126.057C146.793 126.798 145.898 127.378 144.833 127.795C143.767 128.205 142.57 128.409 141.24 128.409Z" fill="#CCCCCC"/>
</svg>
